<?xml version="1.0" standalone="no"?>
<!DOCTYPE svg PUBLIC "-//W3C//DTD SVG 20010904//EN"
 "http://www.w3.org/TR/2001/REC-SVG-20010904/DTD/svg10.dtd">
<svg version="1.0" xmlns="http://www.w3.org/2000/svg"
 width="700.000000pt" height="700.000000pt" viewBox="0 0 700.000000 700.000000"
 preserveAspectRatio="xMidYMid meet">
<metadata>
Created by potrace 1.16, written by Peter Selinger 2001-2019
</metadata>
<g transform="translate(0.000000,700.000000) scale(0.100000,-0.100000)"
fill="#ff2152" stroke="none">
<path d="M7 6993 c-4 -3 -7 -1578 -7 -3500 l0 -3493 3500 0 3500 0 0 3500 0
3500 -3493 0 c-1922 0 -3497 -3 -3500 -7z m5993 -1493 l0 -500 -2000 0 -2000
0 0 -1500 0 -1500 1500 0 1500 0 0 495 0 495 -1000 0 -1000 0 0 505 0 505
1500 0 1500 0 0 -1500 0 -1500 -2500 0 -2500 0 0 2500 0 2500 2500 0 2500 0 0
-500z"/>
</g>
</svg>
